<?xml version="1.0" standalone="no"?>
<!DOCTYPE svg PUBLIC "-//W3C//DTD SVG 20010904//EN"
 "http://www.w3.org/TR/2001/REC-SVG-20010904/DTD/svg10.dtd">
<svg version="1.0" xmlns="http://www.w3.org/2000/svg"
 width="393.000000pt" height="259.000000pt" viewBox="0 0 393.000000 259.000000"
 preserveAspectRatio="xMidYMid meet">

<g transform="translate(0.000000,259.000000) scale(0.100000,-0.100000)"
fill="#000000" stroke="none">
<path d="M706 2379 c-56 -141 -72 -304 -53 -539 7 -91 13 -166 11 -168 -1 -2
-17 5 -35 16 -260 145 -324 166 -364 122 -15 -17 -17 -33 -12 -122 10 -182 76
-369 188 -533 32 -48 59 -88 59 -89 0 0 -69 -1 -152 -1 l-153 0 2 -44 c4 -87
116 -220 303 -358 133 -98 306 -173 402 -173 l40 0 -47 52 c-101 113 -140 229
-131 393 15 256 75 438 203 610 79 107 138 158 225 199 105 49 146 65 152 60
3 -2 5 -2 3 0 -1 3 -38 28 -81 56 -137 89 -347 314 -450 483 -58 94 -84 102
-110 36z"/>
<path d="M3222 2312 c-11 -9 -45 -51 -75 -93 -114 -154 -359 -366 -498 -432
-61 -28 -90 -57 -58 -57 18 0 186 -109 238 -153 104 -91 212 -265 246 -402 35
-139 10 -446 -45 -556 -25 -49 -89 -132 -129 -166 -31 -27 -25 -34 32 -40 60
-7 227 36 319 83 80 40 220 132 286 187 83 70 169 197 156 231 -9 23 -32 28
-169 33 -71 3 -132 7 -133 9 -2 1 21 34 52 72 138 171 246 427 246 585 0 48
-4 58 -25 75 -36 29 -72 22 -222 -44 -195 -86 -177 -82 -168 -28 3 25 9 56 11
67 34 164 39 419 10 545 -22 93 -40 114 -74 84z"/>
<path d="M1868 1913 c6 -2 18 -2 25 0 6 3 1 5 -13 5 -14 0 -19 -2 -12 -5z"/>
<path d="M1988 1903 c7 -3 16 -2 19 1 4 3 -2 6 -13 5 -11 0 -14 -3 -6 -6z"/>
<path d="M2318 1833 c7 -3 16 -2 19 1 4 3 -2 6 -13 5 -11 0 -14 -3 -6 -6z"/>
<path d="M1207 1123 c-22 -4 -28 -9 -25 -26 3 -19 8 -22 48 -19 64 4 194 -24
269 -59 72 -33 84 -35 100 -15 10 11 7 19 -10 35 -67 62 -253 103 -382 84z"/>
<path d="M2193 1010 c-22 -7 -33 -17 -33 -29 0 -18 7 -19 98 -14 109 6 205 -9
331 -52 78 -26 91 -25 91 5 0 21 -45 49 -76 48 -10 0 -55 9 -99 21 -91 25
-263 36 -312 21z"/>
<path d="M1859 776 c-10 -10 -276 -75 -341 -83 -54 -7 -63 -11 -63 -28 0 -15
8 -21 31 -23 30 -3 213 36 352 75 l64 18 56 -31 c198 -107 257 -137 304 -154
46 -16 55 -17 68 -4 19 19 7 29 -65 54 -33 11 -120 55 -192 96 -119 68 -197
97 -214 80z"/>
<path d="M950 486 c0 -2 8 -10 18 -17 15 -13 16 -12 3 4 -13 16 -21 21 -21 13z"/>
<path d="M1065 370 c10 -11 20 -20 23 -20 3 0 -3 9 -13 20 -10 11 -20 20 -23
20 -3 0 3 -9 13 -20z"/>
<path d="M2799 373 c-13 -16 -12 -17 4 -4 9 7 17 15 17 17 0 8 -8 3 -21 -13z"/>
<path d="M1648 153 c7 -3 16 -2 19 1 4 3 -2 6 -13 5 -11 0 -14 -3 -6 -6z"/>
<path d="M2188 153 c7 -3 16 -2 19 1 4 3 -2 6 -13 5 -11 0 -14 -3 -6 -6z"/>
<path d="M1803 143 c15 -2 37 -2 50 0 12 2 0 4 -28 4 -27 0 -38 -2 -22 -4z"/>
<path d="M2048 143 c12 -2 30 -2 40 0 9 3 -1 5 -23 4 -22 0 -30 -2 -17 -4z"/>
</g>
</svg>
